<?xml version="1.0" standalone="no"?>
<!DOCTYPE svg PUBLIC "-//W3C//DTD SVG 1.1//EN"
  "http://www.w3.org/Graphics/SVG/1.1/DTD/svg11.dtd">
<svg width="800" height="800"
     xmlns="http://www.w3.org/2000/svg" version="1.1">
<rect x="0" y="0" width="100%" height="100%" fill="white" />
<defs>
<marker id="arrow" markerWidth="10" markerHeight="10" refX="10" refY="3" orient="auto">
<path d="M0,0 L0,6 L9,3 z"/>
</marker>
</defs>
<circle cx="206" cy="243" r="3" fill="blue" />
<circle cx="325" cy="643" r="3" fill="blue" />
<circle cx="304" cy="538" r="3" fill="blue" />
<circle cx="154" cy="237" r="3" fill="blue" />
<circle cx="177" cy="539" r="3" fill="blue" />
<circle cx="671" cy="281" r="3" fill="blue" />
<circle cx="483" cy="674" r="3" fill="blue" />
<circle cx="317" cy="227" r="3" fill="blue" />
<circle cx="652" cy="141" r="3" fill="blue" />
<circle cx="471" cy="152" r="3" fill="blue" />
<circle cx="209" cy="539" r="3" fill="blue" />
<circle cx="689" cy="449" r="3" fill="blue" />
<circle cx="501" cy="326" r="3" fill="blue" />
<circle cx="392" cy="211" r="3" fill="blue" />
<circle cx="392" cy="382" r="3" fill="blue" />
<circle cx="121" cy="498" r="3" fill="blue" />
<circle cx="526" cy="346" r="3" fill="blue" />
<circle cx="442" cy="130" r="3" fill="blue" />
<circle cx="185" cy="497" r="3" fill="blue" />
<circle cx="268" cy="262" r="3" fill="blue" />
<circle cx="336" cy="240" r="3" fill="blue" />
<circle cx="443" cy="120" r="3" fill="blue" />
<circle cx="215" cy="661" r="3" fill="blue" />
<circle cx="247" cy="167" r="3" fill="blue" />
<circle cx="102" cy="619" r="3" fill="blue" />
<circle cx="220" cy="211" r="3" fill="blue" />
<circle cx="458" cy="210" r="3" fill="blue" />
<circle cx="561" cy="260" r="3" fill="blue" />
<circle cx="436" cy="254" r="3" fill="blue" />
<circle cx="371" cy="129" r="3" fill="blue" />
<circle cx="537" cy="393" r="3" fill="blue" />
<circle cx="528" cy="363" r="3" fill="blue" />
<circle cx="639" cy="271" r="3" fill="blue" />
<circle cx="394" cy="124" r="3" fill="blue" />
<circle cx="668" cy="563" r="3" fill="blue" />
<circle cx="287" cy="305" r="3" fill="blue" />
<circle cx="103" cy="631" r="3" fill="blue" />
<circle cx="326" cy="218" r="3" fill="blue" />
<circle cx="592" cy="473" r="3" fill="blue" />
<circle cx="286" cy="595" r="3" fill="blue" />
<circle cx="392" cy="407" r="3" fill="blue" />
<circle cx="107" cy="151" r="3" fill="blue" />
<circle cx="517" cy="568" r="3" fill="blue" />
<circle cx="311" cy="254" r="3" fill="blue" />
<circle cx="123" cy="583" r="3" fill="blue" />
<circle cx="284" cy="560" r="3" fill="blue" />
<circle cx="276" cy="112" r="3" fill="blue" />
<circle cx="224" cy="216" r="3" fill="blue" />
<circle cx="283" cy="519" r="3" fill="blue" />
<circle cx="240" cy="252" r="3" fill="blue" />
<circle cx="206" cy="243" r="3" fill="blue" />
<line x1="154" y1="237" x2="206" y2="243"
      style="stroke: red;"   />
<line x1="317" y1="227" x2="206" y2="243"
      style="stroke: red;"   />
<line x1="206" y1="243" x2="268" y2="262"
      style="stroke: red;"   />
<line x1="247" y1="167" x2="206" y2="243"
      style="stroke: red;"   />
<line x1="220" y1="211" x2="206" y2="243"
      style="stroke: red;"   />
<line x1="206" y1="243" x2="287" y2="305"
      style="stroke: red;"   />
<line x1="206" y1="243" x2="311" y2="254"
      style="stroke: red;"   />
<line x1="224" y1="216" x2="206" y2="243"
      style="stroke: red;"   />
<line x1="206" y1="243" x2="240" y2="252"
      style="stroke: red;"   />
<circle cx="325" cy="643" r="3" fill="blue" />
<circle cx="304" cy="538" r="3" fill="blue" />
<circle cx="154" cy="237" r="3" fill="blue" />
<line x1="107" y1="151" x2="154" y2="237"
      style="stroke: red;"   />
<circle cx="177" cy="539" r="3" fill="blue" />
<circle cx="671" cy="281" r="3" fill="blue" />
<line x1="561" y1="260" x2="671" y2="281"
      style="stroke: red;"   />
<circle cx="483" cy="674" r="3" fill="blue" />
<circle cx="317" cy="227" r="3" fill="blue" />
<line x1="392" y1="211" x2="317" y2="227"
      style="stroke: red;"   />
<line x1="317" y1="227" x2="336" y2="240"
      style="stroke: red;"   />
<line x1="371" y1="129" x2="317" y2="227"
      style="stroke: red;"   />
<line x1="326" y1="218" x2="317" y2="227"
      style="stroke: red;"   />
<circle cx="652" cy="141" r="3" fill="blue" />
<circle cx="471" cy="152" r="3" fill="blue" />
<line x1="471" y1="152" x2="392" y2="211"
      style="stroke: red;"   />
<circle cx="209" cy="539" r="3" fill="blue" />
<circle cx="689" cy="449" r="3" fill="blue" />
<line x1="689" y1="449" x2="592" y2="473"
      style="stroke: red;"   />
<circle cx="501" cy="326" r="3" fill="blue" />
<line x1="561" y1="260" x2="501" y2="326"
      style="stroke: red;"   />
<line x1="501" y1="326" x2="537" y2="393"
      style="stroke: red;"   />
<circle cx="392" cy="211" r="3" fill="blue" />
<line x1="442" y1="130" x2="392" y2="211"
      style="stroke: red;"   />
<line x1="443" y1="120" x2="392" y2="211"
      style="stroke: red;"   />
<line x1="458" y1="210" x2="392" y2="211"
      style="stroke: red;"   />
<line x1="392" y1="211" x2="436" y2="254"
      style="stroke: red;"   />
<line x1="394" y1="124" x2="392" y2="211"
      style="stroke: red;"   />
<circle cx="392" cy="382" r="3" fill="blue" />
<circle cx="121" cy="498" r="3" fill="blue" />
<circle cx="526" cy="346" r="3" fill="blue" />
<line x1="561" y1="260" x2="526" y2="346"
      style="stroke: red;"   />
<circle cx="442" cy="130" r="3" fill="blue" />
<circle cx="185" cy="497" r="3" fill="blue" />
<circle cx="268" cy="262" r="3" fill="blue" />
<circle cx="336" cy="240" r="3" fill="blue" />
<circle cx="443" cy="120" r="3" fill="blue" />
<circle cx="215" cy="661" r="3" fill="blue" />
<circle cx="247" cy="167" r="3" fill="blue" />
<circle cx="102" cy="619" r="3" fill="blue" />
<circle cx="220" cy="211" r="3" fill="blue" />
<circle cx="458" cy="210" r="3" fill="blue" />
<line x1="458" y1="210" x2="561" y2="260"
      style="stroke: red;"   />
<circle cx="561" cy="260" r="3" fill="blue" />
<line x1="561" y1="260" x2="528" y2="363"
      style="stroke: red;"   />
<line x1="561" y1="260" x2="639" y2="271"
      style="stroke: red;"   />
<circle cx="436" cy="254" r="3" fill="blue" />
<circle cx="371" cy="129" r="3" fill="blue" />
<circle cx="537" cy="393" r="3" fill="blue" />
<line x1="537" y1="393" x2="592" y2="473"
      style="stroke: red;"   />
<circle cx="528" cy="363" r="3" fill="blue" />
<circle cx="639" cy="271" r="3" fill="blue" />
<circle cx="394" cy="124" r="3" fill="blue" />
<line x1="276" y1="112" x2="394" y2="124"
      style="stroke: red;"   />
<circle cx="668" cy="563" r="3" fill="blue" />
<line x1="592" y1="473" x2="668" y2="563"
      style="stroke: red;"   />
<circle cx="287" cy="305" r="3" fill="blue" />
<circle cx="103" cy="631" r="3" fill="blue" />
<circle cx="326" cy="218" r="3" fill="blue" />
<circle cx="592" cy="473" r="3" fill="blue" />
<circle cx="286" cy="595" r="3" fill="blue" />
<circle cx="392" cy="407" r="3" fill="blue" />
<circle cx="107" cy="151" r="3" fill="blue" />
<circle cx="517" cy="568" r="3" fill="blue" />
<circle cx="311" cy="254" r="3" fill="blue" />
<circle cx="123" cy="583" r="3" fill="blue" />
<circle cx="284" cy="560" r="3" fill="blue" />
<circle cx="276" cy="112" r="3" fill="blue" />
<circle cx="224" cy="216" r="3" fill="blue" />
<circle cx="283" cy="519" r="3" fill="blue" />
<circle cx="240" cy="252" r="3" fill="blue" />
</svg>
